
<svg version="1.1" id="Warstwa_1" xmlns:x="&ns_extend;" xmlns:i="&ns_ai;" xmlns:graph="&ns_graphs;"
	 xmlns="http://www.w3.org/2000/svg" xmlns:xlink="http://www.w3.org/1999/xlink" x="0px" y="0px" width="512px" height="512px"
	 viewBox="0 0 512 512" enable-background="new 0 0 512 512" xml:space="preserve">
			<path fill="#333333" d="M478.141,228.014c0-0.005,0-0.005,0-0.005h-31.38c-2.186-15.019-6.094-29.477-11.532-43.167
				l27.163-15.684c-7.323-17.38-16.775-33.638-28.032-48.455l-27.163,15.684c-9.272-11.707-19.878-22.313-31.586-31.585
				l15.693-27.176c-14.818-11.257-31.071-20.719-48.451-28.037l-15.696,27.184c-13.688-5.441-28.145-9.35-43.163-11.535V33.85
				h-0.006c-9.164-1.14-18.507-1.735-27.985-1.735s-18.819,0.596-27.989,1.739c-0.004,0-0.004,0-0.004,0v31.384
				c-15.021,2.186-29.481,6.098-43.169,11.535l-15.695-27.184c-17.376,7.322-33.634,16.78-48.447,28.037l15.688,27.176
				c-11.706,9.276-22.308,19.878-31.581,31.585l-27.18-15.692c-11.253,14.817-20.714,31.071-28.037,48.451l27.185,15.696
				c-5.438,13.69-9.346,28.148-11.531,43.172H33.853c-1.145,9.166-1.74,18.508-1.74,27.985c0,9.479,0.596,18.817,1.74,27.987H65.24
				c2.186,15.023,6.093,29.485,11.531,43.172l-27.181,15.695c7.324,17.376,16.78,33.634,28.033,48.452l27.18-15.692
				c9.273,11.707,19.875,22.308,31.581,31.58l-15.691,27.177c14.817,11.257,31.075,20.71,48.455,28.032l15.691-27.176
				c13.691,5.438,28.148,9.351,43.173,11.535v31.38c9.17,1.145,18.511,1.744,27.989,1.744s18.815-0.596,27.985-1.736l0,0v-31.388
				c15.021-2.185,29.481-6.098,43.169-11.535l15.696,27.185c17.38-7.319,33.633-16.78,48.451-28.037l-15.693-27.176
				c11.712-9.272,22.313-19.878,31.59-31.585l27.177,15.688c11.253-14.818,20.714-31.072,28.036-48.448l-27.185-15.695
				c5.438-13.687,9.347-28.148,11.532-43.168h31.388c0,0,0,0,0-0.004c1.145-9.17,1.739-18.508,1.739-27.987
				C479.888,246.521,479.283,237.18,478.141,228.014z M418.848,317.701c-6.715,17.714-16.22,34.058-28.007,48.468
				c-7.384,9.024-15.649,17.29-24.674,24.673c-14.411,11.789-30.749,21.289-48.464,28.008c-10.773,4.083-22.047,7.13-33.716,9.015
				l0,0c-9.113,1.475-18.455,2.271-27.985,2.271c-9.533,0-18.876-0.797-27.989-2.271c-11.673-1.885-22.946-4.936-33.715-9.02
				c-17.715-6.714-34.058-16.219-48.469-28.007c-9.024-7.379-17.29-15.648-24.669-24.669c-11.788-14.41-21.288-30.75-28.007-48.468
				c-4.084-10.769-7.13-22.043-9.016-33.715c-1.475-9.114-2.271-18.456-2.271-27.987c0-9.53,0.797-18.871,2.271-27.985
				c1.886-11.673,4.932-22.942,9.016-33.715c6.719-17.714,16.219-34.058,28.007-48.469c7.383-9.02,15.649-17.289,24.669-24.668
				c14.411-11.788,30.754-21.293,48.469-28.008c10.769-4.083,22.042-7.135,33.711-9.02h0.004c9.113-1.475,18.456-2.271,27.989-2.271
				c9.53,0,18.872,0.797,27.985,2.271c0,0,0,0,0.006,0c11.663,1.885,22.937,4.937,33.705,9.016
				c17.72,6.719,34.058,16.224,48.469,28.012c9.024,7.379,17.29,15.645,24.674,24.668c11.787,14.411,21.287,30.755,28.007,48.469
				c4.084,10.769,7.13,22.042,9.016,33.71c0,0,0,0,0,0.005c1.474,9.114,2.271,18.455,2.271,27.985
				c0,9.531-0.797,18.873-2.271,27.987v0.004C425.978,295.658,422.932,306.933,418.848,317.701z"/>
			<path fill="#333333" d="M411.174,246.671c-0.01-0.137-0.022-0.27-0.031-0.407c-0.091-1.474-0.205-2.939-0.334-4.4
				c-0.116-1.247-0.244-2.485-0.385-3.724c-0.078-0.694-0.177-1.389-0.263-2.083c-0.291-2.229-0.613-4.443-0.994-6.637
				c-0.055-0.305-0.111-0.609-0.163-0.913c-1.003-5.584-2.297-11.064-3.873-16.425c-1.77-6.012-3.882-11.874-6.333-17.557
				c-10.293-23.871-26.392-44.649-46.519-60.556c-0.043-0.034-0.082-0.064-0.125-0.099c-2.197-1.731-4.443-3.406-6.732-5.022
				c-0.037-0.025-0.076-0.051-0.11-0.076c-11.634-8.185-24.447-14.813-38.125-19.583c-0.119-0.043-0.243-0.082-0.363-0.125
				c-2.55-0.882-5.13-1.696-7.738-2.446c-0.124-0.034-0.254-0.072-0.377-0.106l-4.041,18.22c38.81,11.42,70.442,39.59,86.549,76.146
				l-17.616,6.358c-5.24-11.548-12.272-22.106-20.757-31.311c-4.22-4.576-8.788-8.827-13.678-12.692
				c-11.346-8.964-24.382-15.897-38.552-20.229l-4.054,18.293c10.905,3.518,20.979,8.874,29.876,15.691
				c4.953,3.792,9.533,8.034,13.689,12.676c6.381,7.125,11.737,15.182,15.868,23.928c2.639,5.583,4.782,11.449,6.35,17.547
				l17.586-6.351l17.604-6.354c2.584,9.067,4.28,18.507,4.937,28.238h-18.708h-18.705h-25.029
				c-3.525-28.277-22.865-51.622-48.888-60.938c-5.775-2.07-11.879-3.458-18.216-4.041c-2.279-0.21-4.585-0.321-6.921-0.321
				c-17.685,0-33.92,6.166-46.711,16.446l-17.977-17.394c7.586-6.496,16.173-11.848,25.475-15.846
				c3.644-1.564,7.38-2.939,11.228-4.066l-3.558-18.383c-4.588,1.269-9.058,2.823-13.402,4.618
				c-12.222,5.044-23.405,12.067-33.167,20.681c-4.67,4.122-9.011,8.6-12.979,13.403l13.451,13.014l17.945,17.367
				c-9.376,12.475-14.934,27.981-14.934,44.787c0,18.281,6.578,35.019,17.488,47.989l-16.845,18.199l-12.872,13.9
				c4.221,4.577,8.806,8.81,13.699,12.671c11.351,8.964,24.373,15.902,38.543,20.238c5.894,1.805,11.981,3.142,18.225,4.007
				c5.361,0.745,10.829,1.157,16.391,1.157c9.363,0,18.46-1.102,27.194-3.163l-5.807-18.036c-11.802,2.602-24.279,3.095-36.942,1.09
				c-4.126-0.652-8.142-1.582-12.058-2.709c-6.076-1.748-11.883-4.036-17.372-6.813c-5.442-2.761-10.537-6.03-15.306-9.673
				l16.87-18.224l12.8-13.827c-5.241-3.438-9.873-7.718-13.695-12.667c-7.297-9.449-11.655-21.276-11.655-34.141
				c0-11.758,3.634-22.664,9.825-31.671c3.552-5.163,7.939-9.696,12.976-13.407c9.285-6.844,20.753-10.894,33.17-10.894
				c0.952,0,1.887,0.082,2.825,0.129c6.422,0.317,12.551,1.706,18.225,4.016c17.688,7.194,30.885,23.144,34.134,42.499
				c0.511,3.033,0.788,6.149,0.788,9.328c0,3.181-0.277,6.296-0.788,9.33c-1.376,8.188-4.533,15.765-9.05,22.338
				c-3.548,5.163-7.949,9.684-12.984,13.395c-9.28,6.844-20.735,10.91-33.149,10.91l0,0v18.657l0,0
				c17.685,0,33.926-6.157,46.707-16.442c4.864-3.907,9.217-8.424,12.967-13.416c7.602-10.13,12.706-22.244,14.354-35.441h25.025
				c-0.511,5.459-1.482,10.78-2.837,15.949c-1.594,6.089-3.75,11.946-6.41,17.521c-2.224,4.666-4.812,9.118-7.709,13.348
				l-0.081-0.047c-10.699,15.563-25.633,27.74-42.864,35.141l5.803,18.04c27.631-11.398,49.989-32.964,62.42-60.055
				c2.58-5.617,4.753-11.458,6.437-17.509c2.002-7.211,3.347-14.693,3.947-22.389h18.708c-2.022,29.961-13.708,57.257-31.932,78.854
				c-4.021,4.761-8.352,9.243-12.972,13.412c-24.245,21.879-56.331,35.223-91.563,35.223c-6.95,0-13.776-0.526-20.443-1.525
				c-6.227-0.935-12.299-2.31-18.216-4.049c-36.906-10.858-67.327-36.847-84.086-70.789l17.333-7.113l17.487-7.174
				c-2.909-5.484-5.317-11.248-7.165-17.233c-2.699-8.742-4.225-17.938-4.383-27.388c-0.009-0.42-0.026-0.835-0.026-1.26
				c-0.004-0.283,0.009-0.565,0.014-0.849c0.008-1.808,0.068-3.599,0.171-5.382c0.018-0.286,0.03-0.574,0.052-0.865
				c0.133-1.979,0.321-3.942,0.573-5.892c0.021-0.167,0.048-0.334,0.069-0.502c0.219-1.633,0.492-3.243,0.789-4.851
				c0.119-0.66,0.248-1.319,0.381-1.979c0.321-1.581,0.677-3.153,1.075-4.71c1.367-5.377,3.111-10.574,5.283-15.523l-16.352-9.106
				c-4.357,9.534-7.528,19.797-9.246,30.651c-0.1,0.612-0.163,1.226-0.254,1.838c-0.068,0.484-0.132,0.969-0.197,1.452
				c-0.119,0.892-0.231,1.788-0.325,2.674c-0.073,0.694-0.137,1.394-0.201,2.092c-0.064,0.754-0.142,1.504-0.193,2.258
				c-0.09,1.252-0.153,2.516-0.205,3.779c-0.018,0.502-0.03,1.003-0.043,1.509c-0.026,1.037-0.056,2.074-0.056,3.119
				c0,0.138,0.009,0.271,0.009,0.407c0.004,0.75,0.029,1.495,0.047,2.242c0.021,0.942,0.038,1.89,0.082,2.823
				c0.013,0.305,0.038,0.601,0.055,0.904c0.549,10.31,2.435,20.265,5.46,29.708l-17.325,7.11
				c-4.521-13.58-6.984-28.098-6.984-43.195c0-72.421,56.284-131.667,127.488-136.466v37.413c3.076-0.287,6.188-0.45,9.333-0.45
				c3.149,0,6.257,0.163,9.329,0.446v-37.431v-18.674c-1.114-0.064-2.229-0.116-3.347-0.163c-1.989-0.077-3.976-0.15-5.982-0.15
				c-2.108,0-4.203,0.073-6.29,0.159c-1.011,0.042-2.022,0.081-3.029,0.142c-0.018,0.004-0.029,0.004-0.047,0.004
				c-22.818,1.358-44.308,7.636-63.432,17.787c-0.094,0.052-0.193,0.095-0.288,0.146c-1.873,0.998-3.715,2.049-5.54,3.124
				c-0.297,0.172-0.596,0.334-0.888,0.51c-1.679,0.999-3.329,2.049-4.966,3.107c-0.424,0.278-0.853,0.539-1.272,0.818
				c-1.53,1.011-3.025,2.065-4.513,3.127c-0.505,0.36-1.024,0.716-1.525,1.085c-1.401,1.023-2.772,2.087-4.139,3.158
				c-0.562,0.441-1.132,0.878-1.688,1.328c-1.29,1.041-2.55,2.113-3.806,3.192c-0.604,0.519-1.208,1.037-1.804,1.564
				c-1.188,1.054-2.353,2.138-3.51,3.23c-0.625,0.592-1.251,1.179-1.868,1.782c-1.097,1.072-2.172,2.164-3.235,3.266
				c-0.638,0.66-1.276,1.324-1.902,1.997c-1.011,1.084-2.005,2.189-2.986,3.304c-0.639,0.729-1.277,1.457-1.903,2.198
				c-0.934,1.097-1.846,2.211-2.746,3.333c-0.634,0.793-1.265,1.595-1.886,2.4c-0.853,1.109-1.692,2.232-2.52,3.367
				c-0.621,0.854-1.234,1.719-1.839,2.585c-0.783,1.122-1.555,2.254-2.305,3.397c-0.604,0.917-1.195,1.843-1.778,2.772
				c-0.711,1.131-1.414,2.267-2.095,3.419c-0.579,0.978-1.141,1.964-1.697,2.949c-0.644,1.14-1.281,2.283-1.895,3.44
				c-0.548,1.032-1.075,2.083-1.603,3.128c-0.574,1.144-1.148,2.293-1.696,3.458c-0.515,1.089-1.003,2.189-1.491,3.291
				c-0.511,1.153-1.021,2.302-1.504,3.467c-0.477,1.144-0.917,2.305-1.367,3.462c-0.446,1.157-0.896,2.306-1.312,3.472
				c-0.433,1.199-0.827,2.416-1.23,3.629c-0.381,1.153-0.771,2.302-1.127,3.467c-0.386,1.255-0.728,2.532-1.079,3.806
				c-0.317,1.144-0.651,2.283-0.942,3.44c-0.335,1.32-0.622,2.661-0.922,3.998c-0.253,1.127-0.522,2.25-0.754,3.385
				c-0.278,1.397-0.51,2.811-0.754,4.221c-0.188,1.102-0.398,2.194-0.565,3.304c-0.223,1.491-0.395,3.004-0.574,4.513
				c-0.125,1.041-0.279,2.078-0.382,3.132c-0.172,1.697-0.278,3.415-0.39,5.129c-0.061,0.875-0.15,1.745-0.193,2.623
				c-0.133,2.602-0.201,5.224-0.201,7.858c0,2.47,0.072,4.921,0.188,7.358c0.039,0.806,0.099,1.607,0.15,2.408
				c0.103,1.633,0.219,3.261,0.368,4.877c0.09,0.938,0.188,1.877,0.296,2.811c0.167,1.487,0.355,2.961,0.562,4.436
				c0.137,0.955,0.27,1.911,0.419,2.862c0.24,1.504,0.52,2.995,0.802,4.481c0.167,0.87,0.313,1.749,0.493,2.614
				c0.454,2.186,0.955,4.358,1.504,6.513c0.257,1.013,0.553,2.006,0.826,3.013c0.344,1.23,0.683,2.464,1.051,3.686
				c0.343,1.136,0.711,2.262,1.08,3.385c2.155,6.574,4.7,12.967,7.674,19.12l0.018-0.008c2.373,4.91,5,9.675,7.858,14.281
				c0.073,0.111,0.146,0.223,0.219,0.339c1.341,2.151,2.734,4.269,4.178,6.346c0.158,0.224,0.317,0.441,0.476,0.665
				c1.384,1.972,2.807,3.911,4.28,5.813c0.193,0.245,0.386,0.489,0.579,0.738c1.474,1.877,2.982,3.724,4.538,5.528
				c0.192,0.226,0.386,0.449,0.578,0.672c1.599,1.839,3.239,3.638,4.924,5.398c0.15,0.159,0.3,0.317,0.454,0.477
				c1.783,1.852,3.608,3.659,5.48,5.421c0.056,0.051,0.107,0.102,0.158,0.149c17.792,16.681,39.51,29.228,63.621,36.105
				c2.596,0.741,5.227,1.411,7.875,2.023c0.515,0.115,1.021,0.239,1.535,0.355c1.178,0.257,2.365,0.501,3.552,0.732
				c1.731,0.339,3.467,0.655,5.214,0.935c0.014,0,0.021,0.004,0.035,0.004c1.188,0.188,2.383,0.334,3.579,0.496
				c1.16,0.159,2.321,0.314,3.491,0.446c1.097,0.12,2.202,0.228,3.308,0.33c1.423,0.125,2.851,0.235,4.281,0.325
				c0.896,0.057,1.783,0.116,2.678,0.159c2.374,0.107,4.757,0.181,7.156,0.181c2.605,0,5.198-0.069,7.774-0.198
				c0.917-0.043,1.816-0.132,2.729-0.192c1.646-0.112,3.295-0.214,4.928-0.377c1.127-0.112,2.242-0.266,3.359-0.402
				c1.394-0.167,2.79-0.326,4.17-0.532c1.238-0.185,2.468-0.406,3.698-0.621c1.233-0.214,2.468-0.416,3.693-0.659
				c1.319-0.263,2.622-0.562,3.93-0.857c1.105-0.249,2.211-0.489,3.309-0.764c1.384-0.342,2.758-0.723,4.13-1.105
				c0.986-0.273,1.972-0.544,2.943-0.835c1.453-0.438,2.894-0.9,4.324-1.38c0.86-0.282,1.723-0.569,2.574-0.869
				c1.518-0.536,3.021-1.098,4.518-1.677c0.732-0.282,1.461-0.569,2.186-0.86c1.59-0.644,3.162-1.312,4.727-2.006
				c0.591-0.266,1.183-0.53,1.773-0.801c1.662-0.768,3.313-1.556,4.945-2.374c0.441-0.224,0.883-0.455,1.324-0.682
				c1.748-0.9,3.483-1.825,5.193-2.793c0.278-0.155,0.548-0.318,0.822-0.472c1.855-1.063,3.689-2.151,5.497-3.288
				c0.074-0.047,0.147-0.094,0.22-0.141c7.918-5.001,15.362-10.69,22.231-16.99c4.588-4.207,8.921-8.682,12.979-13.408
				c8.034-9.363,14.981-19.693,20.633-30.796c0.009-0.013,0.017-0.03,0.026-0.043c0.929-1.839,1.829-3.694,2.689-5.571
				c0.014-0.025,0.025-0.055,0.039-0.081c3.398-7.408,6.226-15.135,8.438-23.114c0.065-0.218,0.128-0.437,0.188-0.654
				c0.476-1.74,0.908-3.497,1.324-5.263c0.111-0.471,0.223-0.942,0.325-1.418c0.387-1.705,0.746-3.42,1.072-5.146
				c0.09-0.472,0.171-0.942,0.257-1.419c1.08-6.007,1.834-12.131,2.203-18.356c0.059-1.016,0.098-2.04,0.145-3.06
				c0.081-2.082,0.159-4.171,0.159-6.271c0-2.104-0.078-4.187-0.159-6.269C411.271,248.71,411.232,247.687,411.174,246.671z"/>
	
</svg>
